<?xml version="1.0" encoding="utf-8"?>
<!-- Generator: Adobe Illustrator 25.4.1, SVG Export Plug-In . SVG Version: 6.00 Build 0)  -->
<svg version="1.1" id="Layer_1" xmlns="http://www.w3.org/2000/svg" xmlns:xlink="http://www.w3.org/1999/xlink" x="0px" y="0px"
	 viewBox="0 0 841.89 382.35" style="enable-background:new 0 0 841.89 382.35;" xml:space="preserve">
<style type="text/css">
	.st0{fill:#6D6E71;stroke:#6D6E71;stroke-width:0.75;stroke-miterlimit:10;}
	.st1{fill:#D22238;enable-background:new    ;}
	.st2{fill:#6D6E71;enable-background:new    ;}
</style>
<path class="st0" d="M495.26,317.31h-2.6v-22.32h2.6v2.01h0.12c0.66-0.79,1.45-1.39,2.37-1.81c0.92-0.42,1.95-0.64,3.08-0.64
	c1.07,0,2.05,0.2,2.91,0.59c0.87,0.39,1.61,0.95,2.23,1.67c0.62,0.72,1.1,1.6,1.44,2.62c0.34,1.02,0.51,2.17,0.51,3.46
	c0,1.22-0.17,2.34-0.51,3.36c-0.34,1.02-0.82,1.9-1.44,2.63s-1.36,1.31-2.23,1.72c-0.87,0.41-1.84,0.62-2.91,0.62
	c-1.18,0-2.23-0.21-3.15-0.63c-0.92-0.42-1.69-1.03-2.31-1.81h-0.12V317.31z M500.22,308.94c0.79,0,1.49-0.15,2.11-0.45
	c0.62-0.3,1.15-0.72,1.58-1.27c0.43-0.55,0.76-1.19,0.99-1.92c0.23-0.73,0.34-1.53,0.34-2.4c0-0.91-0.12-1.74-0.36-2.48
	c-0.24-0.74-0.57-1.38-1.01-1.91c-0.43-0.53-0.96-0.94-1.58-1.22s-1.31-0.43-2.08-0.43c-0.81,0-1.52,0.16-2.15,0.48
	c-0.63,0.32-1.17,0.75-1.61,1.3c-0.44,0.55-0.78,1.19-1.01,1.92c-0.23,0.73-0.34,1.51-0.34,2.34c0,0.79,0.11,1.55,0.33,2.28
	c0.22,0.73,0.54,1.38,0.98,1.94c0.43,0.56,0.97,1,1.6,1.33C498.64,308.78,499.38,308.94,500.22,308.94z"/>
<path class="st0" d="M525.71,308.85c-0.83,0.76-1.8,1.35-2.91,1.77c-1.12,0.41-2.43,0.62-3.94,0.62c-1.22,0-2.3-0.2-3.25-0.6
	c-0.95-0.4-1.76-0.97-2.42-1.71c-0.66-0.73-1.17-1.61-1.52-2.63c-0.35-1.02-0.53-2.15-0.53-3.39c0-1.2,0.18-2.31,0.53-3.33
	c0.35-1.02,0.86-1.91,1.52-2.65c0.66-0.74,1.45-1.32,2.37-1.74c0.92-0.41,1.96-0.62,3.12-0.62c0.95,0,1.85,0.13,2.71,0.4
	c0.86,0.27,1.61,0.7,2.26,1.29s1.17,1.34,1.57,2.25s0.59,2,0.59,3.29c0,0.23-0.01,0.53-0.03,0.92c-0.02,0.38-0.06,0.7-0.12,0.95
	H513.8c0.06,1.65,0.54,2.95,1.44,3.89c0.9,0.94,2.13,1.41,3.71,1.41c2.21,0,4-0.69,5.36-2.08L525.71,308.85z M523.26,301.5
	c-0.04-1.42-0.43-2.54-1.18-3.39s-1.88-1.26-3.41-1.26c-0.6,0-1.16,0.1-1.69,0.3c-0.53,0.2-1,0.49-1.43,0.89
	c-0.42,0.4-0.78,0.88-1.05,1.47c-0.28,0.58-0.46,1.25-0.54,2H523.26z"/>
<path class="st0" d="M536.8,311.23c-1.14,0-2.18-0.2-3.13-0.6c-0.95-0.4-1.77-0.97-2.46-1.69c-0.69-0.72-1.24-1.6-1.63-2.63
	c-0.39-1.03-0.59-2.17-0.59-3.41c0-1.24,0.2-2.37,0.59-3.39c0.39-1.02,0.93-1.9,1.63-2.63c0.69-0.73,1.51-1.3,2.46-1.71
	s1.99-0.6,3.13-0.6c1.12,0,2.16,0.2,3.12,0.6s1.79,0.97,2.48,1.71c0.69,0.73,1.23,1.61,1.63,2.63c0.39,1.02,0.59,2.16,0.59,3.39
	c0,1.24-0.2,2.38-0.59,3.41c-0.39,1.03-0.94,1.91-1.63,2.63c-0.69,0.72-1.52,1.29-2.48,1.69
	C538.96,311.03,537.92,311.23,536.8,311.23z M536.8,308.94c0.76,0,1.46-0.15,2.09-0.45c0.63-0.3,1.17-0.71,1.63-1.24
	c0.45-0.53,0.81-1.16,1.05-1.91s0.37-1.56,0.37-2.45c0-0.89-0.12-1.7-0.37-2.43c-0.25-0.73-0.6-1.37-1.05-1.91
	c-0.46-0.54-1-0.96-1.63-1.26c-0.63-0.3-1.33-0.45-2.09-0.45c-0.79,0-1.49,0.15-2.12,0.45c-0.63,0.3-1.17,0.72-1.61,1.26
	c-0.44,0.54-0.79,1.17-1.04,1.91c-0.25,0.73-0.37,1.55-0.37,2.43c0,0.89,0.12,1.71,0.37,2.45s0.59,1.38,1.04,1.91
	c0.44,0.53,0.98,0.94,1.61,1.24C535.31,308.79,536.02,308.94,536.8,308.94z"/>
<path class="st0" d="M551.09,317.31h-2.6v-22.32h2.6v2.01h0.12c0.66-0.79,1.45-1.39,2.37-1.81c0.92-0.42,1.95-0.64,3.08-0.64
	c1.07,0,2.05,0.2,2.91,0.59c0.87,0.39,1.61,0.95,2.23,1.67c0.62,0.72,1.1,1.6,1.44,2.62c0.34,1.02,0.51,2.17,0.51,3.46
	c0,1.22-0.17,2.34-0.51,3.36c-0.34,1.02-0.82,1.9-1.44,2.63s-1.36,1.31-2.23,1.72c-0.87,0.41-1.84,0.62-2.91,0.62
	c-1.18,0-2.23-0.21-3.15-0.63c-0.92-0.42-1.69-1.03-2.31-1.81h-0.12V317.31z M556.05,308.94c0.79,0,1.49-0.15,2.11-0.45
	c0.62-0.3,1.15-0.72,1.58-1.27c0.43-0.55,0.76-1.19,0.99-1.92c0.23-0.73,0.34-1.53,0.34-2.4c0-0.91-0.12-1.74-0.36-2.48
	c-0.24-0.74-0.57-1.38-1.01-1.91c-0.43-0.53-0.96-0.94-1.58-1.22s-1.31-0.43-2.08-0.43c-0.81,0-1.52,0.16-2.15,0.48
	c-0.63,0.32-1.17,0.75-1.61,1.3c-0.44,0.55-0.78,1.19-1.01,1.92c-0.23,0.73-0.34,1.51-0.34,2.34c0,0.79,0.11,1.55,0.33,2.28
	c0.22,0.73,0.54,1.38,0.98,1.94c0.43,0.56,0.97,1,1.6,1.33C554.47,308.78,555.21,308.94,556.05,308.94z"/>
<path class="st0" d="M568.05,288.17h2.6v22.63h-2.6V288.17z"/>
<path class="st0" d="M589.6,308.85c-0.83,0.76-1.8,1.35-2.91,1.77c-1.12,0.41-2.43,0.62-3.94,0.62c-1.22,0-2.3-0.2-3.25-0.6
	c-0.95-0.4-1.76-0.97-2.42-1.71c-0.66-0.73-1.17-1.61-1.52-2.63c-0.35-1.02-0.53-2.15-0.53-3.39c0-1.2,0.18-2.31,0.53-3.33
	c0.35-1.02,0.86-1.91,1.52-2.65c0.66-0.74,1.45-1.32,2.37-1.74c0.92-0.41,1.96-0.62,3.12-0.62c0.95,0,1.85,0.13,2.71,0.4
	c0.86,0.27,1.61,0.7,2.26,1.29s1.17,1.34,1.57,2.25s0.59,2,0.59,3.29c0,0.23-0.01,0.53-0.03,0.92c-0.02,0.38-0.06,0.7-0.12,0.95
	h-11.84c0.06,1.65,0.54,2.95,1.44,3.89c0.9,0.94,2.13,1.41,3.71,1.41c2.21,0,4-0.69,5.36-2.08L589.6,308.85z M587.15,301.5
	c-0.04-1.42-0.43-2.54-1.18-3.39s-1.88-1.26-3.41-1.26c-0.6,0-1.16,0.1-1.69,0.3c-0.53,0.2-1,0.49-1.43,0.89
	c-0.42,0.4-0.78,0.88-1.05,1.47c-0.28,0.58-0.46,1.25-0.54,2H587.15z"/>
<path class="st0" d="M598,305.13c0-0.95,0.16-1.78,0.48-2.5c0.32-0.71,0.73-1.33,1.24-1.86c0.51-0.53,1.09-0.98,1.75-1.36
	c0.66-0.38,1.33-0.72,2.01-1.01c-0.81-1.05-1.35-2.01-1.63-2.88c-0.28-0.87-0.42-1.55-0.42-2.05c0-1.57,0.48-2.76,1.44-3.58
	s2.33-1.22,4.11-1.22c1.59,0,2.85,0.43,3.77,1.3s1.38,2.01,1.38,3.44c0,0.79-0.12,1.48-0.37,2.08c-0.25,0.6-0.57,1.12-0.98,1.57
	s-0.88,0.84-1.43,1.18c-0.55,0.34-1.11,0.66-1.69,0.95l4.31,5.77c0.54-0.72,0.88-1.5,1.04-2.34c0.16-0.84,0.24-1.6,0.26-2.28h2.54
	c-0.02,1.67-0.25,3.04-0.68,4.11c-0.43,1.06-0.92,1.9-1.46,2.5l2.95,3.88h-3.72l-1.36-1.8c-0.72,0.64-1.61,1.19-2.67,1.66
	c-1.05,0.46-2.32,0.7-3.78,0.7c-1.08,0-2.05-0.13-2.93-0.4c-0.88-0.27-1.63-0.66-2.25-1.18c-0.62-0.52-1.1-1.16-1.43-1.94
	C598.16,307.07,598,306.16,598,305.13z M604.91,300.29c-0.56,0.27-1.07,0.56-1.55,0.87c-0.48,0.31-0.89,0.66-1.24,1.04
	c-0.35,0.38-0.63,0.81-0.84,1.27c-0.21,0.46-0.31,1-0.31,1.6c0,1.14,0.33,2.04,0.98,2.7c0.65,0.66,1.67,0.99,3.05,0.99
	c0.97,0,1.91-0.17,2.8-0.51c0.9-0.34,1.63-0.76,2.19-1.26L604.91,300.29z M606.24,297.16c0.99-0.48,1.76-0.99,2.29-1.54
	c0.54-0.55,0.81-1.28,0.81-2.19c0-0.68-0.22-1.23-0.65-1.66c-0.43-0.42-1-0.64-1.71-0.64s-1.31,0.18-1.81,0.54s-0.76,0.95-0.76,1.75
	c0,0.48,0.14,1.03,0.42,1.66C605.11,295.73,605.58,296.42,606.24,297.16z"/>
<path class="st0" d="M626.31,297.44h-3.35v-2.32h3.35l0.03-3.5l2.58-1.15v4.65h4.9v2.32h-4.9v8.77c0,0.93,0.18,1.61,0.54,2.03
	c0.36,0.42,1,0.64,1.91,0.64c0.37,0,0.79-0.05,1.24-0.14c0.45-0.09,0.82-0.19,1.08-0.29v2.48c-0.41,0.12-0.87,0.23-1.38,0.31
	c-0.51,0.08-1,0.12-1.47,0.12c-0.66,0-1.27-0.09-1.81-0.26c-0.55-0.18-1.02-0.47-1.43-0.87c-0.4-0.4-0.72-0.92-0.95-1.57
	c-0.23-0.64-0.34-1.43-0.34-2.36V297.44z"/>
<path class="st0" d="M650.4,308.85c-0.83,0.76-1.8,1.35-2.91,1.77c-1.12,0.41-2.43,0.62-3.94,0.62c-1.22,0-2.3-0.2-3.25-0.6
	c-0.95-0.4-1.76-0.97-2.42-1.71c-0.66-0.73-1.17-1.61-1.52-2.63c-0.35-1.02-0.53-2.15-0.53-3.39c0-1.2,0.18-2.31,0.53-3.33
	c0.35-1.02,0.86-1.91,1.52-2.65c0.66-0.74,1.45-1.32,2.37-1.74c0.92-0.41,1.96-0.62,3.12-0.62c0.95,0,1.85,0.13,2.71,0.4
	c0.86,0.27,1.61,0.7,2.26,1.29s1.17,1.34,1.57,2.25s0.59,2,0.59,3.29c0,0.23-0.01,0.53-0.03,0.92c-0.02,0.38-0.06,0.7-0.12,0.95
	H638.5c0.06,1.65,0.54,2.95,1.44,3.89c0.9,0.94,2.13,1.41,3.71,1.41c2.21,0,4-0.69,5.36-2.08L650.4,308.85z M647.95,301.5
	c-0.04-1.42-0.43-2.54-1.18-3.39s-1.88-1.26-3.41-1.26c-0.6,0-1.16,0.1-1.69,0.3c-0.53,0.2-1,0.49-1.43,0.89
	c-0.42,0.4-0.78,0.88-1.05,1.47c-0.28,0.58-0.46,1.25-0.54,2H647.95z"/>
<path class="st0" d="M671.05,288.17h2.6v9.3h0.19c0.72-1.03,1.54-1.78,2.46-2.23c0.92-0.46,1.9-0.68,2.93-0.68
	c2.02,0,3.49,0.62,4.4,1.86s1.36,2.98,1.36,5.21v9.18h-2.6v-8.87c0-0.7-0.05-1.36-0.16-1.97c-0.1-0.61-0.29-1.14-0.57-1.6
	c-0.28-0.46-0.66-0.81-1.13-1.05s-1.08-0.37-1.8-0.37c-0.68,0-1.33,0.16-1.95,0.47c-0.62,0.31-1.16,0.75-1.63,1.33
	c-0.46,0.58-0.83,1.27-1.1,2.08c-0.27,0.81-0.4,1.72-0.4,2.73v7.25h-2.6V288.17z"/>
<path class="st0" d="M689.52,294.99h2.51v2.48h0.19c0.72-1.03,1.56-1.78,2.51-2.23c0.95-0.46,1.94-0.68,2.98-0.68
	c2.02,0,3.49,0.62,4.4,1.86s1.36,2.98,1.36,5.21v9.18h-2.6v-8.87c0-0.7-0.05-1.36-0.16-1.97c-0.1-0.61-0.29-1.14-0.57-1.6
	c-0.28-0.46-0.66-0.81-1.13-1.05s-1.08-0.37-1.8-0.37c-0.68,0-1.33,0.16-1.95,0.47c-0.62,0.31-1.16,0.75-1.63,1.33
	c-0.46,0.58-0.83,1.27-1.1,2.08c-0.27,0.81-0.4,1.72-0.4,2.73v7.25h-2.6V294.99z"/>
<path class="st0" d="M715.13,311.23c-1.14,0-2.18-0.2-3.13-0.6c-0.95-0.4-1.77-0.97-2.46-1.69c-0.69-0.72-1.24-1.6-1.63-2.63
	c-0.39-1.03-0.59-2.17-0.59-3.41c0-1.24,0.2-2.37,0.59-3.39c0.39-1.02,0.93-1.9,1.63-2.63c0.69-0.73,1.51-1.3,2.46-1.71
	s1.99-0.6,3.13-0.6c1.12,0,2.16,0.2,3.12,0.6s1.79,0.97,2.48,1.71c0.69,0.73,1.23,1.61,1.63,2.63c0.39,1.02,0.59,2.16,0.59,3.39
	c0,1.24-0.2,2.38-0.59,3.41c-0.39,1.03-0.94,1.91-1.63,2.63c-0.69,0.72-1.52,1.29-2.48,1.69
	C717.28,311.03,716.24,311.23,715.13,311.23z M715.13,308.94c0.76,0,1.46-0.15,2.09-0.45c0.63-0.3,1.17-0.71,1.63-1.24
	c0.45-0.53,0.81-1.16,1.05-1.91s0.37-1.56,0.37-2.45c0-0.89-0.12-1.7-0.37-2.43c-0.25-0.73-0.6-1.37-1.05-1.91
	c-0.46-0.54-1-0.96-1.63-1.26c-0.63-0.3-1.33-0.45-2.09-0.45c-0.79,0-1.49,0.15-2.12,0.45c-0.63,0.3-1.17,0.72-1.61,1.26
	c-0.44,0.54-0.79,1.17-1.04,1.91c-0.25,0.73-0.37,1.55-0.37,2.43c0,0.89,0.12,1.71,0.37,2.45s0.59,1.38,1.04,1.91
	c0.44,0.53,0.98,0.94,1.61,1.24C713.63,308.79,714.34,308.94,715.13,308.94z"/>
<path class="st0" d="M727.22,288.17h2.6v22.63h-2.6V288.17z"/>
<path class="st0" d="M741.94,311.23c-1.14,0-2.18-0.2-3.13-0.6c-0.95-0.4-1.77-0.97-2.46-1.69c-0.69-0.72-1.24-1.6-1.63-2.63
	c-0.39-1.03-0.59-2.17-0.59-3.41c0-1.24,0.2-2.37,0.59-3.39c0.39-1.02,0.93-1.9,1.63-2.63c0.69-0.73,1.51-1.3,2.46-1.71
	s1.99-0.6,3.13-0.6c1.12,0,2.16,0.2,3.12,0.6s1.79,0.97,2.48,1.71c0.69,0.73,1.23,1.61,1.63,2.63c0.39,1.02,0.59,2.16,0.59,3.39
	c0,1.24-0.2,2.38-0.59,3.41c-0.39,1.03-0.94,1.91-1.63,2.63c-0.69,0.72-1.52,1.29-2.48,1.69
	C744.1,311.03,743.06,311.23,741.94,311.23z M741.94,308.94c0.76,0,1.46-0.15,2.09-0.45c0.63-0.3,1.17-0.71,1.63-1.24
	c0.45-0.53,0.81-1.16,1.05-1.91s0.37-1.56,0.37-2.45c0-0.89-0.12-1.7-0.37-2.43c-0.25-0.73-0.6-1.37-1.05-1.91
	c-0.46-0.54-1-0.96-1.63-1.26c-0.63-0.3-1.33-0.45-2.09-0.45c-0.79,0-1.49,0.15-2.12,0.45c-0.63,0.3-1.17,0.72-1.61,1.26
	c-0.44,0.54-0.79,1.17-1.04,1.91c-0.25,0.73-0.37,1.55-0.37,2.43c0,0.89,0.12,1.71,0.37,2.45s0.59,1.38,1.04,1.91
	c0.44,0.53,0.98,0.94,1.61,1.24C740.45,308.79,741.16,308.94,741.94,308.94z"/>
<path class="st0" d="M765.31,308.48h-0.12c-0.66,0.76-1.45,1.32-2.36,1.67c-0.91,0.35-1.89,0.53-2.95,0.53
	c-0.99,0-1.92-0.19-2.77-0.57s-1.6-0.92-2.22-1.63c-0.62-0.7-1.11-1.55-1.46-2.54s-0.53-2.1-0.53-3.32c0-1.18,0.17-2.26,0.53-3.24
	c0.35-0.98,0.84-1.83,1.46-2.54s1.35-1.27,2.2-1.67s1.78-0.6,2.79-0.6c1.26,0,2.31,0.22,3.16,0.67c0.85,0.44,1.56,1.04,2.14,1.78
	h0.12v-2.01h2.6v15c0,2.46-0.6,4.34-1.8,5.66c-1.2,1.31-3.08,1.97-5.64,1.97c-1.47,0-2.73-0.25-3.78-0.74
	c-1.05-0.5-1.97-1.08-2.76-1.74l1.46-2.01c0.72,0.72,1.53,1.26,2.42,1.61s1.78,0.53,2.67,0.53c1.69,0,2.92-0.43,3.69-1.29
	c0.76-0.86,1.15-2.17,1.15-3.92V308.48z M760.51,296.85c-0.81,0-1.51,0.15-2.12,0.45c-0.61,0.3-1.12,0.71-1.53,1.22
	c-0.41,0.52-0.72,1.13-0.93,1.84c-0.21,0.71-0.31,1.47-0.31,2.28c0,0.83,0.11,1.59,0.33,2.28c0.22,0.69,0.53,1.29,0.95,1.8
	c0.41,0.51,0.92,0.9,1.53,1.18s1.31,0.42,2.09,0.42c0.81,0,1.52-0.15,2.14-0.46c0.62-0.31,1.14-0.73,1.57-1.25
	c0.42-0.53,0.74-1.13,0.95-1.81c0.21-0.68,0.31-1.4,0.31-2.14s-0.1-1.46-0.31-2.15c-0.21-0.69-0.52-1.31-0.93-1.84
	c-0.41-0.54-0.93-0.97-1.55-1.3C762.06,297.02,761.34,296.85,760.51,296.85z"/>
<path class="st0" d="M771.95,315.2c0.64-0.04,1.21-0.15,1.71-0.33s0.93-0.43,1.32-0.77c0.38-0.34,0.72-0.78,1.02-1.3
	c0.3-0.53,0.57-1.16,0.82-1.91l-6.32-15.9h3.1l4.53,12.71h0.12l4.62-12.71h3.04l-6.94,17.61c-0.35,0.87-0.74,1.6-1.18,2.19
	c-0.43,0.59-0.92,1.07-1.44,1.46c-0.53,0.38-1.1,0.68-1.72,0.88c-0.62,0.21-1.28,0.35-1.98,0.43L771.95,315.2z"/>
<path d="M137.13,181.88c0.23-3.89,0.37-7.46,0.67-11.02c0.3-3.58,0.77-7.14,1.15-10.71c0.14-1.31,0.67-2.18,2.02-2.59
	c1.49-0.45,2.91-1.1,4.62-1.76c-0.6,4.64-1.25,8.88-1.66,13.15c-0.4,4.19-0.53,8.4-0.79,12.78c20.83,0,41.33,0,62.13,0
	c0-15.38,0-30.67,0-46.1c2.01-0.48,3.75-0.89,5.88-1.4c0,16,0,31.69,0,47.52c21.07,0,41.82,0,62.89,0c0-8.68-1.09-17.18-2.73-25.61
	c-1.64-8.47-4.08-16.72-7.55-25.14c2.37,0.56,4.38,0.92,6.31,1.55c0.58,0.19,1.12,1.07,1.33,1.74c1.51,4.79,3.1,9.57,4.34,14.43
	c2.17,8.44,3.42,17.04,3.96,25.75c0.15,2.37,0.35,4.74,0.54,7.27c14.05,0,27.99,0,42.18,0c-0.16-2.65-0.22-5.18-0.47-7.69
	c-1.51-15.11-5.8-29.37-12.91-42.81c-0.8-1.5-1.76-1.96-3.39-1.94c-7.19,0.08-14.39-0.06-21.58,0.08c-2.48,0.05-4.49-0.52-6.31-2.19
	c-1.33-1.22-2.85-2.24-4.18-3.82c10.06,0,20.12,0,30.72,0c-4.33-6.92-9.19-12.66-14.62-18.38c1.92-0.97,3.66-1.85,5.92-2.99
	c0.48,0.67,0.92,1.45,1.5,2.1c15.67,17.41,25.65,37.59,29.62,60.71c1.37,7.97,2.03,16,1.67,24.07
	c-1.31,29.88-11.96,55.96-32.37,77.88c-15.96,17.14-35.4,28.61-58.12,34.43c-12.79,3.27-25.77,4.36-38.95,3.33
	c-21.76-1.71-41.67-8.67-59.45-21.28c-26.39-18.72-42.92-44.01-49.2-75.79c-1.02-5.14-1.3-10.43-1.98-15.65
	c-0.18-1.36,0.35-2.3,1.27-3.16c1.93-1.8,3.87-3.58,5.74-5.44c1.04-1.03,2.2-1.35,3.66-1.35c11.67,0.05,23.34,0.03,35.01,0.03
	C134.97,181.88,135.92,181.88,137.13,181.88z M211.51,188.05c-0.58,2.51-0.49,50.36,0.09,52.21c17.69,0,35.41,0,53.08,0
	c5.04-8.19,10.73-39.68,9.41-52.21C253.23,188.05,232.36,188.05,211.51,188.05z M143.3,188.03c0,0.93-0.04,1.57,0.01,2.2
	c0.31,4.61,0.53,9.24,0.99,13.84c1.18,11.73,3.88,23.1,8.14,34.1c0.84,2.16,0.84,2.18,3.03,2.18c15.82,0,31.64,0,47.47,0
	c0.69,0,1.39-0.09,2.05-0.14c0.13-0.38,0.27-0.6,0.27-0.82c0.03-16.37,0.04-32.73,0.05-49.1c0-0.63-0.1-1.26-0.17-1.89
	c-0.01-0.07-0.09-0.13-0.14-0.19c-0.05-0.06-0.12-0.1-0.2-0.18C184.41,188.03,163.98,188.03,143.3,188.03z M146.84,240.35
	c-6.48-17.11-9.24-34.48-9.64-52.31c-14.45,0-28.63,0-42.93,0c-0.06,0.58-0.19,1.05-0.15,1.5c0.39,4.04,0.67,8.1,1.24,12.12
	c1.81,12.92,5.94,25.09,12,36.64c0.82,1.56,1.77,2.09,3.51,2.08c11.1-0.08,22.2-0.04,33.31-0.04
	C144.9,240.35,145.61,240.35,146.84,240.35z M280.23,187.99c-0.08,17.98-2.66,35.32-8.8,52.36c1.15,0,1.93,0,2.72,0
	c9.83,0,19.66-0.17,29.48,0.09c3.36,0.09,5.03-0.94,6.53-3.95c7.24-14.57,11.29-29.93,12.21-46.15c0.04-0.76,0.01-1.51,0.01-2.36
	C308.25,187.99,294.45,187.99,280.23,187.99z M211.51,246.52c-0.53,2.26-0.5,49.01,0.08,51.26c10.45-4.61,19.62-10.97,27.81-18.79
	c9.68-9.25,17.18-20.02,22.89-32.47C245.09,246.52,228.28,246.52,211.51,246.52z M205.14,246.58c-4.11-0.5-47.02-0.3-48.91,0.26
	c6.25,13.06,14.67,24.46,25.33,34.2c7.02,6.41,14.68,11.9,23.58,16.24C205.14,280.13,205.14,263.43,205.14,246.58z M192.46,297.83
	c0.06-0.18,0.12-0.36,0.18-0.54c-0.77-0.53-1.54-1.07-2.32-1.6c-7.86-5.29-14.95-11.46-21.24-18.55
	c-7.68-8.66-13.93-18.27-18.77-28.78c-0.64-1.4-1.34-2.04-3.01-2.03c-10.95,0.09-21.9,0.04-32.85,0.05c-0.59,0-1.18,0.11-2.13,0.21
	c9.14,14.08,20.55,25.39,34.36,34.27C160.7,289.87,175.98,295.51,192.46,297.83z M226.36,297.18c16.37-2.32,31.3-8.2,44.96-17.28
	c13.18-8.76,24.07-19.78,32.94-33.37c-12.05,0-23.65,0-35.33,0C259.71,267.61,245.66,284.55,226.36,297.18z"/>
<path d="M558.51,198.77c0.2,3.44,0.39,6.75,0.62,10.64c0.79-0.94,1.28-1.48,1.73-2.06c4.12-5.34,9.43-8.76,16.12-9.94
	c12-2.13,21.38,2.84,26.19,12.56c0.14,0.28,0.31,0.55,0.61,1.08c0.47-0.63,0.87-1.16,1.26-1.69c4.55-6.22,10.3-10.74,18.08-11.99
	c8.01-1.29,15.48-0.04,21.65,5.72c4.42,4.13,6.85,9.41,8.04,15.22c0.65,3.19,1.07,6.48,1.09,9.73c0.11,14.7,0.05,29.4,0.05,44.09
	c0,0.63,0,1.26,0,1.84c-1.86,0.66-11.94,0.76-14.55,0.14c0-0.89,0-1.83,0-2.78c0-13.58,0.03-27.16-0.02-40.74
	c-0.01-4.42-0.61-8.76-2.43-12.85c-1.87-4.19-4.93-7.09-9.5-8.02c-4.78-0.97-9.23-0.1-13.07,3.06c-4.59,3.77-7.03,8.61-7.03,14.58
	c-0.02,14.62-0.01,29.24-0.01,43.85c0,0.95,0,1.9,0,3.18c-4.91,0.22-9.63,0.1-14.63,0.08c0-1.23,0-2.17,0-3.1
	c0-13.66,0.01-27.32-0.01-40.98c-0.01-3.92-0.27-7.83-1.71-11.54c-2.23-5.74-6.25-9.18-12.57-9.46c-4.95-0.21-9.02,1.83-12.3,5.42
	c-3.77,4.12-5.57,9.02-5.56,14.63c0.03,13.98,0.01,27.96,0.01,41.94c0,0.94,0,1.87,0,2.96c-4.97,0-9.64,0-14.63,0c0-1.07,0-2,0-2.93
	c0-17.97,0.04-35.95-0.02-53.92c-0.02-5.59-0.31-11.17-0.46-16.75c-0.02-0.61,0.05-1.23,0.08-1.98
	C549.82,198.77,553.95,198.77,558.51,198.77z"/>
<path class="st1" d="M182.07,139.44c-3.15,0.99-6.3,1.97-9.45,2.97c-17.88,5.71-35.48,12.16-52.27,20.62
	c-10.01,5.04-19.61,10.74-28.11,18.12c-5.28,4.59-9.92,9.71-13.13,16.01c-4.83,9.49-4.52,18.9,0.49,28.19
	c4.02,7.46,9.9,13.26,16.62,18.3c0.67,0.5,1.33,1,1.83,1.79c-0.3-0.05-0.62-0.06-0.9-0.17c-13.27-5.11-26.35-10.64-38.52-18.07
	c-5.88-3.59-11.54-7.52-16.04-12.8c-1.85-2.16-3.5-4.59-4.76-7.13c-2.64-5.32-2.19-10.66,0.71-15.81c1.91-3.39,4.54-6.17,7.47-8.66
	c6.44-5.49,13.82-9.45,21.45-12.98c13.44-6.21,27.45-10.79,41.67-14.81c19.59-5.54,39.44-9.94,59.48-13.52
	c4.46-0.8,8.93-1.59,13.39-2.38C182.02,139.22,182.05,139.33,182.07,139.44z"/>
<path d="M483.78,235.47c-0.04,8.37-1.5,16.14-5.75,23.18c-5.81,9.62-14.47,15.1-25.43,17.02c-6.65,1.17-13.23,0.67-19.6-1.63
	c-9.11-3.29-15.84-9.38-19.56-18.26c-6.04-14.41-5.59-28.75,2.57-42.25c6.25-10.35,15.98-15.53,27.98-16.44
	c6.62-0.5,13.09,0.29,19.18,3.09c9.94,4.56,15.99,12.41,18.95,22.79C483.31,227.12,483.72,231.41,483.78,235.47z M468.34,236.31
	c0.06-6.45-1.3-12.69-4.82-18.35c-4.6-7.38-12.14-10.97-21.68-8.93c-6.71,1.43-11.07,5.82-13.86,11.82
	c-3.51,7.55-4.17,15.49-2.58,23.62c0.98,5.02,2.9,9.64,6.37,13.47c4.99,5.52,11.18,7.77,18.55,6.31c5.75-1.14,9.96-4.53,13.06-9.35
	C466.97,249.3,468.37,243.06,468.34,236.31z"/>
<path d="M737.43,235.94c-0.35,7.24-1.53,14.21-4.91,20.64c-5.76,10.95-14.96,17.19-27.09,19.14c-8.02,1.29-15.79,0.31-23.08-3.39
	c-9.15-4.65-14.9-12.19-17.64-21.92c-3.08-10.95-2.71-21.88,2.11-32.29c6.16-13.31,16.88-20.19,31.48-21.07
	c5.89-0.35,11.66,0.36,17.13,2.65c11.18,4.69,17.71,13.32,20.42,24.9C736.7,228.3,736.92,232.15,737.43,235.94z M721.8,236.61
	c-0.09-1.43-0.13-2.87-0.27-4.3c-0.5-5.07-1.85-9.88-4.58-14.23c-5.16-8.24-13.33-11.19-22.58-8.86
	c-6.33,1.59-10.49,5.94-13.14,11.71c-3.44,7.49-4.13,15.34-2.58,23.41c0.98,5.11,2.99,9.75,6.45,13.7
	c5.6,6.39,14.64,8.46,22.27,5.09c4.48-1.98,7.76-5.29,10.14-9.5C720.5,248.35,721.65,242.61,721.8,236.61z"/>
<path d="M497.21,186.48c-4.27,0-8.1-0.02-11.93,0.01c-1.13,0.01-1.53-0.55-1.65-1.58c-0.25-2.21-0.57-4.41-0.92-7.04
	c-0.82,0.79-1.37,1.3-1.9,1.82c-8.42,8.11-18.44,10.2-29.45,7.13c-8.91-2.48-14.64-10.62-14.88-19.88
	c-0.3-11.48,5.23-19.22,15.34-24.01c5.99-2.84,12.38-4.17,18.94-4.76c3.4-0.31,6.82-0.45,10.23-0.67c1.15-9-3.76-16.37-12.7-17.13
	c-7.7-0.65-14.92,0.81-21.62,4.72c-0.4,0.23-0.83,0.42-1.45,0.74c-0.34-0.72-0.68-1.32-0.91-1.96c-0.67-1.88-1.28-3.77-1.93-5.66
	c-0.9-2.64-0.92-2.65,1.66-4.01c4.42-2.33,9.13-3.79,14.04-4.62c5.71-0.96,11.46-1.16,17.16-0.02c10.76,2.16,17.3,8.79,19.75,19.37
	c0.71,3.08,1.06,6.31,1.11,9.48c0.15,8.7-0.06,17.41,0.09,26.1c0.11,6.45,0.57,12.9,0.88,19.36
	C497.09,184.63,497.15,185.4,497.21,186.48z M481.67,148.32c-5.24-0.03-10.01,0.24-14.73,1.2c-3.23,0.66-6.35,1.6-9.15,3.39
	c-5.67,3.62-7.9,10.18-5.64,16.53c1.18,3.31,3.44,5.5,6.77,6.6c3.22,1.06,6.45,0.81,9.69,0.03c6.79-1.64,13.56-8.38,13.08-16.77
	c-0.13-2.31-0.02-4.63-0.02-6.95C481.67,151.09,481.67,149.83,481.67,148.32z"/>
<path d="M521.96,186.41c-5.17,0.05-9.91,0.24-14.79-0.11c-0.38-25.34,0.43-50.45-0.58-75.7c4.45,0,8.64,0,13.14,0
	c0.26,3.4,0.52,6.75,0.82,10.59c0.85-1,1.4-1.63,1.93-2.28c9.5-11.59,27.94-13.53,39.45-4.1c4.97,4.08,7.69,9.54,8.91,15.72
	c0.62,3.11,1.01,6.32,1.04,9.49c0.11,14.69,0.05,29.38,0.04,44.07c0,0.63-0.07,1.26-0.1,1.85c-1.69,0.65-11.93,0.77-14.72,0.15
	c-0.04-0.86-0.12-1.79-0.12-2.71c-0.01-13.81,0.07-27.63-0.06-41.44c-0.03-2.99-0.44-6.08-1.26-8.95
	c-3.12-10.87-14.34-15.18-24.04-9.28c-5.85,3.55-9.01,8.88-9.59,15.71c-0.09,1.03-0.07,2.07-0.07,3.11c0,13.65,0,27.31,0,40.96
	C521.96,184.36,521.96,185.22,521.96,186.41z"/>
<path d="M142.44,142.97c1.52-4.74,2.9-9.03,4.38-13.66c-1,0-1.78,0-2.56,0c-11.11,0-22.22,0.05-33.33-0.05
	c-1.93-0.02-2.82,0.71-3.65,2.31c-3.45,6.69-6.4,13.57-8.44,20.81c-0.48,1.71-1.37,2.52-2.98,2.91c-1.31,0.32-2.59,0.78-4.13,1.26
	c0.08-0.76,0.06-1.36,0.2-1.92c5.25-19.66,14.73-37.01,28.69-51.84c17.07-18.12,37.81-29.91,62.13-35.29
	c11.69-2.59,23.54-3.27,35.48-2.24c5.09,0.44,4.04-0.36,5.34,4.82c0.13,0.51,0.19,1.04,0.31,1.71c-1.4-0.13-2.62-0.24-3.85-0.35
	c-0.06,0.16-0.12,0.31-0.18,0.47c1.11,0.69,2.19,1.46,3.35,2.06c1.17,0.61,1.76,1.5,2.01,2.76c0.42,2.09,0.95,4.17,1.56,6.8
	c-5.13-3.43-9.86-6.57-15.46-9.06c-0.08,1.25-0.2,2.16-0.2,3.07c-0.01,13.26-0.01,26.52-0.01,39.77c0,0.64-0.06,1.29,0.01,1.92
	c0.16,1.31-0.44,2.01-1.61,2.57c-4.68,2.24-9.29,4.63-13.98,6.83c-1.03,0.49-2.3,0.65-3.46,0.66c-11.99,0.05-23.98,0.03-35.97,0.03
	c-2.68,0-2.72-0.01-3.62,2.43c-0.97,2.62-1.98,5.23-2.76,7.9c-0.44,1.53-1.18,2.27-2.77,2.42
	C145.6,142.2,144.24,142.6,142.44,142.97z M156.72,123.12c2.73,0.44,46.54,0.32,48.28-0.13c0.58-2.71,0.44-46.29-0.23-48.12
	c-12.32,5.65-22.85,13.64-31.93,23.61C165.95,106.04,157.49,119.02,156.72,123.12z M149.59,123.24
	c10.28-22.2,25.91-39.48,47.27-51.6c-20.47,1.85-38.9,8.9-55.49,20.84c-11.29,8.12-27.5,25.57-28.52,30.76
	C125.06,123.24,137.27,123.24,149.59,123.24z"/>
<path d="M491.38,259.53c3.73,1.42,7.01,2.86,10.42,3.92c4.16,1.3,8.45,1.74,12.77,0.75c1.08-0.25,2.16-0.58,3.18-1.01
	c7.46-3.16,7.29-12.9,2.4-16.67c-2.25-1.73-4.85-3.04-7.42-4.3c-2.43-1.2-5.11-1.89-7.49-3.15c-2.81-1.49-5.6-3.11-8.08-5.09
	c-10.38-8.29-8.45-21.8-1.47-29.04c4.35-4.52,9.75-6.94,15.85-7.68c7-0.86,13.87-0.17,20.4,2.74c0.87,0.39,1.71,0.87,2.54,1.34
	c0.27,0.15,0.47,0.4,0.85,0.74c-1.13,3.44-2.26,6.89-3.48,10.6c-0.86-0.34-1.52-0.54-2.12-0.86c-3.86-2.08-7.97-3.22-12.34-3.54
	c-2.6-0.19-5.11,0.16-7.48,1.24c-6.35,2.9-7.45,11.01-1.98,15.31c1.79,1.41,3.94,2.42,6.03,3.39c3.4,1.57,6.93,2.87,10.32,4.45
	c3.2,1.5,6.02,3.58,8.51,6.13c7.77,7.98,7.63,25.19-4.76,32.77c-4.47,2.73-9.36,4.08-14.51,4.48c-7.77,0.61-15.3-0.48-22.45-3.72
	c-1.07-0.48-2.07-1.13-3.23-1.77C489.06,266.78,490.22,263.16,491.38,259.53z"/>
<path d="M623.02,124.59c-1.2-0.58-2.13-1.02-3.05-1.46c-4.86-2.32-9.94-3.5-15.33-2.69c-3.97,0.6-7.04,2.55-8.36,6.57
	c-1.16,3.53-0.21,7.27,2.78,9.46c2.16,1.59,4.62,2.82,7.06,3.97c3.24,1.54,6.64,2.73,9.87,4.28c3.86,1.85,7.17,4.44,9.78,7.9
	c5.79,7.68,5.75,23.48-6.37,30.88c-4.18,2.55-8.74,3.91-13.56,4.36c-8.17,0.76-16.09-0.29-23.61-3.75c-0.65-0.3-1.29-0.64-1.91-0.99
	c-0.27-0.15-0.5-0.38-1.01-0.78c1.16-3.61,2.33-7.28,3.58-11.19c1.34,0.64,2.39,1.16,3.45,1.66c5.42,2.55,11.07,4.18,17.12,3.63
	c1.95-0.18,3.97-0.65,5.77-1.42c7.48-3.22,6.93-12.23,3.02-16.02c-2.17-2.1-4.75-3.47-7.48-4.63c-2.35-1-4.75-1.86-7.08-2.9
	c-3.74-1.66-7.2-3.76-10.24-6.55c-8.75-8.03-7.14-20.73-0.61-27.79c4.51-4.87,10.23-7.33,16.66-8.06
	c7.01-0.79,13.87,0.03,20.35,3.04c3.1,1.44,3.09,1.47,2.03,4.62c-0.68,2.04-1.37,4.08-2.08,6.11
	C623.63,123.36,623.37,123.84,623.02,124.59z"/>
<path d="M406.89,201.29c-1.14,3.84-2.23,7.47-3.4,11.39c-0.93-0.36-1.65-0.6-2.35-0.9c-6.44-2.74-13.13-3.49-19.95-2.1
	c-7.91,1.61-13.59,6.29-16.76,13.67c-4.03,9.37-4.05,18.84,0.65,28c3.91,7.63,10.5,11.6,18.98,12.4c6.15,0.58,12.1-0.38,17.8-2.76
	c0.57-0.24,1.18-0.4,1.99-0.67c1.16,3.75,1.89,7.45,2.63,11.23c-3.25,1.81-6.64,2.67-10.07,3.39c-7.44,1.57-14.93,1.97-22.34,0.09
	c-14.82-3.77-23.52-13.5-26.63-28.27c-1.73-8.2-1.32-16.4,1.55-24.31c4.55-12.55,13.41-20.57,26.31-23.96
	c9.77-2.57,19.46-2.07,28.94,1.51C405.11,200.32,405.92,200.81,406.89,201.29z"/>
<path d="M740.9,270.44c1.16-3.66,2.32-7.27,3.56-11.17c0.99,0.47,1.76,0.82,2.51,1.2c5.36,2.66,10.97,4.47,17.02,4.16
	c2.19-0.11,4.47-0.56,6.5-1.38c6.66-2.69,8.25-11.09,3.22-16.22c-2.06-2.1-4.63-3.37-7.27-4.52c-3.29-1.43-6.69-2.64-9.86-4.3
	c-2.52-1.32-4.95-2.96-7.1-4.82c-9.13-7.88-7.59-20-2.05-26.99c3.35-4.22,7.74-6.92,12.88-8.26c8.38-2.18,16.61-1.5,24.61,1.84
	c0.81,0.34,1.57,0.78,2.33,1.21c0.34,0.19,0.62,0.46,1.12,0.84c-1.16,3.46-2.31,6.9-3.54,10.58c-0.76-0.28-1.36-0.42-1.88-0.7
	c-3.93-2.1-8.1-3.47-12.56-3.57c-2.27-0.05-4.65,0.25-6.81,0.94c-3.34,1.08-5.48,3.58-6.01,7.12c-0.56,3.72,0.66,6.92,3.94,8.85
	c3.08,1.81,6.37,3.3,9.67,4.68c3.91,1.64,7.79,3.31,11.2,5.87c9.18,6.89,11.5,19.66,5.28,29.29c-3.24,5.02-8,8.03-13.61,9.55
	c-10.56,2.87-20.87,1.91-30.82-2.72c-0.51-0.24-1-0.5-1.48-0.78C741.55,271.04,741.39,270.85,740.9,270.44z"/>
<path d="M354.89,110.36c0-4.5,0-8.79,0-13.36c4.76-1.5,9.43-2.97,14.49-4.57c0.28,6.08,0,11.86,0.18,17.97
	c6.44,0.08,12.78-0.01,19.28,0.06c0,4,0,7.7,0,11.75c-3.27,0.1-6.44,0.04-9.6,0.05c-3.11,0.01-6.22,0-9.52,0
	c-0.08,0.73-0.2,1.34-0.2,1.94c-0.01,12.7-0.05,25.4,0.03,38.09c0.01,2.21,0.33,4.47,0.87,6.62c1.12,4.49,3.81,6.58,8.46,6.59
	c2.38,0,4.75-0.44,7.13-0.69c0.38-0.04,0.76-0.12,1.45-0.23c0.15,2.01,0.31,3.88,0.44,5.75c0.12,1.82,0.2,3.65,0.3,5.52
	c-2.16,1.24-4.46,1.5-6.73,1.84c-3.49,0.52-7,0.64-10.49,0.03c-8.26-1.45-13.24-6.4-14.9-14.5c-0.71-3.49-1.04-7.12-1.07-10.69
	c-0.13-12.46-0.05-24.92-0.05-37.37c0-0.86,0-1.72,0-2.87c-3.87,0-7.5,0-11.23,0c-0.49-2.14-0.22-4.04-0.27-5.92
	c-0.05-1.83-0.01-3.65-0.01-5.82C347.31,110.47,351,110.42,354.89,110.36z"/>
<path class="st1" d="M226.43,63.58c6.42,13.01,12.84,26.01,19.47,39.44c4.23-5.52,8.26-10.78,12.29-16.04
	c0.16,0.09,0.32,0.17,0.48,0.26c-1.47,6.35-2.94,12.7-4.42,19.1c0.83,0.59,1.57,0.16,2.3-0.02c13.42-3.22,26.84-6.44,40.25-9.65
	c0.15-0.04,0.31-0.02,0.6,0.24c-13.08,6.46-26.17,12.91-39.64,19.56c5.42,4.55,11.02,8.42,16.2,12.95
	c-6.55-1.52-13.11-3.03-20.05-4.64c0.84,5.03,2.21,9.65,3.27,14.33c1.05,4.67,2.22,9.31,3.34,13.96c1.14,4.71,2.28,9.43,3.41,14.14
	c-0.15,0.06-0.31,0.12-0.46,0.18c-6.4-12.94-12.8-25.88-19.37-39.17c-4.29,5.62-8.34,10.92-12.39,16.21
	c-0.14-0.06-0.28-0.11-0.43-0.17c1.49-6.44,2.97-12.87,4.57-19.77c-7.61,1.5-14.72,3.44-21.89,5.1c-7.14,1.65-14.24,3.42-21.49,4.82
	c13.16-6.5,26.33-13,39.89-19.7c-5.67-4.33-11.02-8.43-16.38-12.53c0.04-0.11,0.08-0.23,0.12-0.34c6.56,1.51,13.12,3.02,20.15,4.64
	c-3.48-14.55-6.86-28.69-10.25-42.83C226.16,63.64,226.29,63.61,226.43,63.58z"/>
<path class="st1" d="M302.02,268.52c0.75,0.17,1.06,0.19,1.32,0.3c5.86,2.58,11.62,5.36,16.74,9.23c2.21,1.67,4.34,3.57,6.09,5.71
	c3.81,4.64,3.43,9.44-0.72,13.75c-2.99,3.1-6.65,5.21-10.48,7.05c-8.97,4.31-18.47,7.09-28.12,9.32
	c-7.85,1.82-15.79,3.23-23.69,4.81c-0.61,0.12-1.26,0.11-1.96-0.16c2.23-0.69,4.47-1.37,6.7-2.09c8.97-2.9,17.8-6.14,26.14-10.59
	c4.24-2.26,8.32-4.79,11.81-8.12c1.49-1.42,2.89-3,4.05-4.7c3.57-5.2,3.72-10.63,0.28-15.91c-1.42-2.18-3.35-4.03-5.13-5.96
	C304.27,270.29,303.28,269.6,302.02,268.52z"/>
<path d="M287.75,94.92c-2.38,0.56-4.31,1-6.23,1.49c-1.21,0.31-1.94-0.47-2.74-1.11c-7.99-6.32-16.65-11.57-26.08-15.41
	c-4.86-1.98-9.91-3.5-14.9-5.13c-1.29-0.42-2.23-0.94-2.76-2.29c-0.64-1.61-1.52-3.13-2.54-5.18c10.54,2.12,20.12,5.5,29.3,10.09
	C271.05,81.99,279.56,87.71,287.75,94.92z"/>
<path class="st2" d="M666.52,307.96c0.25,0.93,0.43,1.61,0.6,2.25c-3.22,2.26-8.35,1.86-11.11-0.78c-2.96-2.84-3.46-8.32-1.09-11.96
	c2.37-3.63,7.4-4.86,12.24-2.8c-0.22,0.82-0.45,1.69-0.71,2.68c-3.12-1.06-6.01-1.35-8.21,1.43c-1.55,1.95-1.61,5.37-0.16,7.46
	C660.23,309.33,663.28,308.74,666.52,307.96z"/>
<g>
	<path class="st1" d="M412.58,117.86v17.58c0.42-1.28,0.97-2.53,1.66-3.73c3.86-6.75,9.62-10,17.49-9.23
		c0.84,0.08,1.69,0.01,2.68,0.01c0-4.59,0-9.02,0-13.64C425.12,107.25,418.25,110.83,412.58,117.86z"/>
	<path d="M412.58,114.32c-0.11-1.43-0.22-2.82-0.33-4.23c-4.51,0-8.81,0-13.38,0c-0.06,0.58-0.16,1.04-0.15,1.49
		c0.23,10.45,0.6,20.91,0.69,31.36c0.12,13.42,0.03,26.84,0.03,40.26c0,0.92,0.07,1.83,0.11,2.74c4.47,0,8.63,0,13.03,0V114.32z"/>
</g>
</svg>
